<svg xmlns="http://www.w3.org/2000/svg" version="1.1" xmlns:xlink="http://www.w3.org/1999/xlink" xmlns:svgjs="http://svgjs.dev/svgjs" width="1920" height="4000" preserveAspectRatio="none" viewBox="0 0 1920 4000"><g mask="url(&quot;#SvgjsMask1038&quot;)" fill="none"><rect width="1920" height="4000" x="0" y="0" fill="#0e2a47"></rect><path d="M0,1803.97C333.983,1789.331,604.588,1559.1,885.106,1377.252C1164.502,1196.132,1492.618,1047.695,1632.638,745.601C1772.889,443.009,1653.053,98.185,1632.232,-234.679C1609.366,-600.233,1778.649,-1060.78,1504.457,-1303.619C1220.902,-1554.75,762.487,-1256.848,391.549,-1333.493C66.52,-1400.652,-181.553,-1794.57,-504.672,-1718.754C-825.491,-1643.478,-934.952,-1244.421,-1127.574,-977.048C-1301.69,-735.363,-1489.651,-511.129,-1579.317,-227.072C-1681.548,96.79,-1798.988,448.975,-1677.871,766.258C-1554.909,1088.375,-1229.654,1275.735,-936.417,1457.093C-647.466,1635.8,-339.422,1818.848,0,1803.97" fill="#0b2239"></path><path d="M1920 5265.048C2151.529 5236.51 2347.024 5090.88 2521.686 4936.241 2677.058 4798.68 2791.697 4625.503 2862.624 4430.482 2929.573 4246.399 2943.744 4050.694 2914.176 3857.059 2884.8 3664.682 2802.4120000000003 3490.855 2694.423 3328.959 2573.639 3147.881 2448.612 2961.3540000000003 2253.014 2865.858 2039.455 2761.593 1782.559 2690.9049999999997 1560.395 2775.2960000000003 1340.912 2858.669 1239.341 3102.51 1111.533 3299.46 1000.055 3471.246 926.535 3653.137 864.154 3848.192 789.4860000000001 4081.666 644.652 4316.176 710.8979999999999 4552.178 779.156 4795.348 997.221 4969.055 1214.789 5097.33 1427.2350000000001 5222.585 1675.23 5295.218 1920 5265.048" fill="#113255"></path></g><defs><mask id="SvgjsMask1038"><rect width="1920" height="4000" fill="#ffffff"></rect></mask></defs></svg>